<?xml version="1.0" standalone="no"?>
<!DOCTYPE svg PUBLIC "-//W3C//DTD SVG 20010904//EN"
 "http://www.w3.org/TR/2001/REC-SVG-20010904/DTD/svg10.dtd">
<svg version="1.0" xmlns="http://www.w3.org/2000/svg"
 width="1000.000000pt" height="1000.000000pt" viewBox="0 0 1000.000000 1000.000000"
 preserveAspectRatio="xMidYMid meet">
<metadata>
Created by potrace 1.11, written by Peter Selinger 2001-2013
</metadata>
<g transform="translate(0.000000,1000.000000) scale(0.100000,-0.100000)"
fill="#000000" stroke="none">
<path d="M4768 9355 c-2 -1 -48 -5 -103 -9 -55 -3 -111 -8 -125 -10 -14 -2
-51 -7 -84 -11 -32 -4 -68 -8 -80 -10 -11 -2 -39 -6 -61 -10 -69 -10 -107 -16
-126 -21 -36 -8 -64 -14 -119 -25 -30 -6 -97 -22 -148 -36 -51 -13 -102 -26
-112 -28 -66 -13 -439 -148 -570 -207 -256 -115 -552 -283 -752 -428 -42 -30
-86 -62 -98 -70 -13 -8 -28 -20 -34 -25 -6 -6 -45 -37 -86 -70 -646 -512
-1162 -1260 -1420 -2060 -35 -109 -102 -356 -116 -430 -4 -21 -23 -125 -30
-160 -10 -57 -24 -156 -29 -205 -3 -30 -8 -64 -10 -75 -26 -130 -26 -810 0
-940 2 -11 7 -45 10 -75 3 -30 7 -66 10 -80 2 -14 6 -41 9 -60 3 -19 7 -44 10
-55 2 -11 7 -40 11 -65 4 -25 9 -52 11 -60 8 -38 36 -167 39 -180 23 -110 112
-387 176 -545 122 -307 233 -522 406 -788 74 -114 186 -274 202 -287 3 -3 28
-34 56 -70 27 -36 52 -67 55 -70 3 -3 42 -45 85 -95 94 -106 251 -264 354
-355 41 -36 79 -70 85 -76 59 -55 349 -271 443 -329 306 -188 519 -298 773
-399 149 -59 448 -157 517 -170 16 -3 57 -12 93 -21 57 -14 114 -27 185 -40
63 -12 209 -35 265 -41 36 -4 76 -8 90 -10 213 -26 776 -25 932 1 12 2 61 9
108 15 81 11 317 52 370 65 14 3 36 8 50 11 116 23 407 114 565 176 216 85
478 211 623 300 34 21 67 38 72 38 6 0 10 5 10 10 0 6 5 10 11 10 29 0 417
281 548 396 145 127 306 284 390 379 30 33 68 76 85 95 18 19 59 69 91 110 33
41 62 77 66 80 3 3 20 28 39 55 19 28 37 52 41 55 3 3 45 64 92 135 312 475
522 977 635 1520 12 55 23 114 26 130 2 17 9 62 16 100 6 39 13 90 16 115 2
25 6 59 9 75 20 133 27 618 12 805 -62 785 -321 1508 -772 2160 -52 74 -102
144 -112 155 -10 11 -35 43 -56 70 -131 171 -384 434 -562 585 -109 91 -151
126 -241 193 -542 407 -1197 689 -1859 802 -151 25 -170 28 -285 39 -47 4 -98
10 -115 13 -33 5 -581 13 -587 8z"/>
</g>
</svg>
